<svg xmlns="http://www.w3.org/2000/svg">
    <symbol id="add" viewBox="0 0 36 36">
        <polygon fill-rule="evenodd" points="31 17 19 17 19 5 17 5 17 17 5 17 5 19 17 19 17 31 19 31 19 19 31 19"/>
    </symbol>

    <symbol id="alarm" viewBox="0 0 36 36">
        <g fill-rule="evenodd">
            <polygon points="17 17 13 17 13 19 19 19 19 11 17 11"/>
            <path
                d="M27.5464,12.5518 C27.5464,12.5508 27.5454,12.5508 27.5454,12.5498 C27.3274,12.1698 27.0814,11.8088 26.8214,11.4588 C26.7584,11.3738 26.6944,11.2908 26.6294,11.2078 C26.0914,10.5258 25.4764,9.9108 24.7944,9.3728 C24.7094,9.3058 24.6234,9.2408 24.5364,9.1758 C24.1894,8.9188 23.8324,8.6738 23.4554,8.4578 C23.4534,8.4568 23.4504,8.4548 23.4484,8.4528 C23.9814,7.5708 24.9444,6.9998 26.0004,6.9998 C27.6544,6.9998 29.0004,8.3458 29.0004,9.9998 C29.0004,11.0558 28.4294,12.0188 27.5464,12.5518 M18.0004,26.9998 C13.0374,26.9998 9.0004,22.9628 9.0004,17.9998 C9.0004,16.7048 9.2784,15.4448 9.8264,14.2508 C10.7254,12.2958 12.2964,10.7248 14.2504,9.8258 L14.2514,9.8258 L14.2514,9.8258 C16.6354,8.7308 19.3644,8.7308 21.7494,9.8258 L21.7494,9.8258 L21.7494,9.8258 C23.7034,10.7248 25.2754,12.2958 26.1734,14.2508 C26.7214,15.4448 27.0004,16.7048 27.0004,17.9998 C27.0004,22.9628 22.9624,26.9998 18.0004,26.9998 M10.0004,6.9998 C11.0554,6.9998 12.0194,7.5708 12.5514,8.4528 C12.5494,8.4548 12.5474,8.4568 12.5444,8.4578 C12.1674,8.6738 11.8104,8.9188 11.4634,9.1758 C11.3764,9.2408 11.2904,9.3058 11.2054,9.3728 C10.5234,9.9108 9.9084,10.5258 9.3704,11.2078 C9.3054,11.2908 9.2414,11.3738 9.1794,11.4588 C8.9194,11.8088 8.6724,12.1698 8.4544,12.5498 C8.4544,12.5508 8.4544,12.5508 8.4534,12.5518 C7.5704,12.0188 7.0004,11.0558 7.0004,9.9998 C7.0004,8.3458 8.3454,6.9998 10.0004,6.9998 M31.0004,9.9998 C31.0004,7.2428 28.7564,4.9998 26.0004,4.9998 C24.1544,4.9998 22.4914,6.0468 21.6324,7.6328 C20.7754,7.3318 19.8924,7.1408 19.0004,7.0588 L19.0004,4.9998 L21.0004,4.9998 L21.0004,2.9998 L15.0004,2.9998 L15.0004,4.9998 L17.0004,4.9998 L17.0004,7.0588 C16.1084,7.1408 15.2254,7.3318 14.3684,7.6328 C13.5084,6.0468 11.8454,4.9998 10.0004,4.9998 C7.2434,4.9998 5.0004,7.2428 5.0004,9.9998 C5.0004,11.8448 6.0464,13.5068 7.6314,14.3668 C7.2174,15.5388 7.0004,16.7548 7.0004,17.9998 C7.0004,20.9968 8.2074,23.7148 10.1584,25.7008 L7.2194,29.3748 L8.7804,30.6248 L11.6864,26.9928 C13.4754,28.2528 15.6504,28.9998 18.0004,28.9998 C20.3494,28.9998 22.5244,28.2528 24.3134,26.9928 L27.2194,30.6248 L28.7804,29.3748 L25.8414,25.7008 C27.7924,23.7148 29.0004,20.9968 29.0004,17.9998 C29.0004,16.7548 28.7834,15.5388 28.3684,14.3668 C29.9534,13.5068 31.0004,11.8448 31.0004,9.9998"/>
        </g>
    </symbol>

    <symbol id="alert" viewBox="0 0 36 36">
        <g fill-rule="evenodd">
            <polygon points="17 21 19 21 19 12 17 12"/>
            <path
                d="M18,22.5 C17.172,22.5 16.5,23.172 16.5,24 C16.5,24.828 17.172,25.5 18,25.5 C18.828,25.5 19.5,24.828 19.5,24 C19.5,23.172 18.828,22.5 18,22.5 L18,22.5 Z"/>
            <path
                d="M5.4141,18 L18.0001,5.414 L30.5861,18 L18.0001,30.586 L5.4141,18 Z M18.0001,2.586 L2.5861,18 L18.0001,33.414 L33.4141,18 L18.0001,2.586 Z"/>
        </g>
    </symbol>

    <symbol id="audio" viewBox="0 0 36 36">
        <g fill-rule="evenodd">
            <polygon points="15 21 17 21 17 15 15 15"/>
            <polygon points="11 29 13 29 13 7 11 7"/>
            <polygon points="7 25 9 25 9 11 7 11"/>
            <polygon points="3 21 5 21 5 15 3 15"/>
            <polygon points="19 25 21 25 21 11 19 11"/>
            <polygon points="23 29 25 29 25 7 23 7"/>
            <polygon points="31 21 33 21 33 15 31 15"/>
            <polygon points="27 25 29 25 29 11 27 11"/>
        </g>
    </symbol>


    <symbol id="calendar" viewBox="0 0 36 36">
        <g fill-rule="evenodd">
            <path
                d="M20.9997,2.9997 L20.9997,7.0007 L15.0007,7.0007 L15.0007,2.9997 L8.9997,2.9997 L8.9997,7.0007 L5.0007,7.0007 L5.0007,12.9997 L5.0007,15.0007 L5.0007,30.9997 L30.9997,30.9997 L30.9997,15.0007 L30.9997,12.9997 L30.9997,7.0007 L26.9997,7.0007 L26.9997,2.9997 L20.9997,2.9997 Z M23.0007,7.9997 L23.0007,5.0007 L25.0007,5.0007 L25.0007,7.9997 L25.0007,8.9987 L23.0007,8.9987 L23.0007,7.9997 Z M10.9997,7.9997 L10.9997,5.0007 L12.9997,5.0007 L12.9997,7.9997 L12.9997,8.9987 L10.9997,8.9987 L10.9997,7.9997 Z M26.9997,10.9997 L26.9997,8.9987 L28.9997,8.9987 L28.9997,12.9997 L7.0007,12.9997 L7.0007,8.9987 L8.9997,8.9987 L8.9997,10.9997 L15.0007,10.9997 L15.0007,8.9987 L20.9997,8.9987 L20.9997,10.9997 L26.9997,10.9997 Z M7.0007,28.9997 L29.0017,28.9997 L29.0017,15.0007 L7.0007,15.0007 L7.0007,28.9997 Z"/>
            <polygon points="9 19 11 19 11 17 9 17"/>
            <polygon points="13 19 15 19 15 17 13 17"/>
            <polygon points="17 19 19 19 19 17 17 17"/>
            <polygon points="21 19 23 19 23 17 21 17"/>
            <polygon points="25 19 27 19 27 17 25 17"/>
            <polygon points="9 23 11 23 11 21 9 21"/>
            <polygon points="13 23 15 23 15 21 13 21"/>
            <polygon points="17 23 19 23 19 21 17 21"/>
            <polygon points="21 23 23 23 23 21 21 21"/>
            <polygon points="25 23 27 23 27 21 25 21"/>
            <polygon points="9 27 11 27 11 25 9 25"/>
            <polygon points="13 27 15 27 15 25 13 25"/>
            <polygon points="17 27 19 27 19 25 17 25"/>
            <polygon points="21 27 23 27 23 25 21 25"/>
            <polygon points="25 27 27 27 27 25 25 25"/>
        </g>
    </symbol>

    <symbol id="camera" viewBox="0 0 24 24">
        <g fill-rule="evenodd">
            <path
                d="M9.20538 4.1875H9.5H14.5H14.7946L14.9821 4.41476L16.8571 6.6875H20.4375C20.8519 6.6875 21.2493 6.85212 21.5424 7.14515C21.8354 7.43817 22 7.8356 22 8.25V17.625C22 18.0394 21.8354 18.4368 21.5424 18.7299C21.2493 19.0229 20.8519 19.1875 20.4375 19.1875H3.5625C3.1481 19.1875 2.75067 19.0229 2.45765 18.7299C2.16462 18.4368 2 18.0394 2 17.625V8.25C2 7.8356 2.16462 7.43817 2.45765 7.14515C2.75067 6.85212 3.1481 6.6875 3.5625 6.6875H7.14288L9.01789 4.41476L9.20538 4.1875ZM9.79462 5.4375L7.91961 7.71024L7.73212 7.9375H7.4375H3.5625C3.47962 7.9375 3.40013 7.97042 3.34153 8.02903C3.28292 8.08763 3.25 8.16712 3.25 8.25V17.625C3.25 17.7079 3.28292 17.7874 3.34153 17.846C3.40013 17.9046 3.47962 17.9375 3.5625 17.9375H20.4375C20.5204 17.9375 20.5999 17.9046 20.6585 17.846C20.7171 17.7874 20.75 17.7079 20.75 17.625V8.25C20.75 8.16712 20.7171 8.08763 20.6585 8.02903C20.5999 7.97042 20.5204 7.9375 20.4375 7.9375H16.5625H16.2679L16.0804 7.71024L14.2054 5.4375H9.79462ZM12 9.625C10.5157 9.625 9.3125 10.8282 9.3125 12.3125C9.3125 13.7968 10.5157 15 12 15C13.4843 15 14.6875 13.7968 14.6875 12.3125C14.6875 10.8282 13.4843 9.625 12 9.625ZM8.0625 12.3125C8.0625 10.1379 9.82538 8.375 12 8.375C14.1746 8.375 15.9375 10.1379 15.9375 12.3125C15.9375 14.4871 14.1746 16.25 12 16.25C9.82538 16.25 8.0625 14.4871 8.0625 12.3125ZM18.375 10.75C18.8582 10.75 19.25 10.3582 19.25 9.875C19.25 9.39175 18.8582 9 18.375 9C17.8918 9 17.5 9.39175 17.5 9.875C17.5 10.3582 17.8918 10.75 18.375 10.75Z"/>
        </g>
    </symbol>

    <symbol id="check" viewBox="0 0 36 36">
        <g fill-rule="evenodd">
            <polygon points="29 8 13.561 23.439 7.121 17 5 19.12 13.561 27.681 31.12 10.12"/>
            <polygon points="29 8 13.561 23.439 7.121 17 5 19.12 13.561 27.681 31.12 10.12"/>
        </g>
    </symbol>

    <symbol id="chevron-down" viewBox="0 0 36 36">
        <polygon fill-rule="evenodd"
                 points="9.293 14.707 10.707 13.293 18 20.586 25.293 13.293 26.707 14.707 18 23.414"/>
    </symbol>

    <svg xmlns="http://www.w3.org/2000/svg" id="chevron-small-down" viewBox="0 0 36 36">
        <polygon fill-rule="evenodd" points="9.293 14.707 10.707 13.293 18 20.586 25.293 13.293 26.707 14.707 18 23.414"/>
    </svg>

    <svg xmlns="http://www.w3.org/2000/svg" id="chevron-large-down" viewBox="0 0 36 36">
        <polygon fill-rule="evenodd" points="9.293 14.707 10.707 13.293 18 20.586 25.293 13.293 26.707 14.707 18 23.414"/>
    </svg>


    <symbol id="chevron-up" viewBox="0 0 36 36">
        <polygon fill-rule="evenodd"
                 points="26.707 21.293 25.293 22.707 18 15.414 10.707 22.707 9.293 21.293 18 12.586"/>
    </symbol>

    <svg xmlns="http://www.w3.org/2000/svg" id="chevron-small-up" viewBox="0 0 36 36">
        <polygon fill-rule="evenodd" points="26.707 21.293 25.293 22.707 18 15.414 10.707 22.707 9.293 21.293 18 12.586"/>
    </svg>
    <svg xmlns="http://www.w3.org/2000/svg" id="chevron-large-up" viewBox="0 0 36 36">
        <polygon fill-rule="evenodd" points="26.707 21.293 25.293 22.707 18 15.414 10.707 22.707 9.293 21.293 18 12.586"/>
    </svg>

    <symbol id="cross-large" viewBox="0 0 36 36">
        <polygon fill-rule="evenodd"
                 points="27.899 9.515 26.485 8.101 18 16.586 9.514 8.101 8.1 9.515 16.586 18 8.1 26.486 9.514 27.9 18 19.414 26.485 27.9 27.899 26.486 19.414 18"/>
    </symbol>

    <symbol id="cross-small" viewBox="0 0 24 24">
        <path fill-rule="evenodd"
              d="M12.571 11.688l2.996 2.996-.884.884-2.995-2.996-2.996 2.996-.884-.884 2.996-2.996-2.996-2.996.884-.884 2.996 2.996 2.995-2.995.884.884-2.996 2.995z"
              clip-rule="evenodd"></path>
    </symbol>

    <symbol id="expand" viewBox="0 0 24 24">
        <g fill-rule="evenodd">
            <path
                d="M28.4419 12.4419L28.8839 12L28 11.1161L27.558 11.558L15.558 23.558L15.1161 24L16 24.8839L16.4419 24.4419L28.4419 12.4419ZM28.4419 16.4419L28.8839 16L28 15.1161L27.558 15.558L19.558 23.558L19.1161 24L20 24.8839L20.4419 24.4419L28.4419 16.4419Z"/>
        </g>
        <defs>
            <clipPath id="clip0">
                <rect width="24" height="24" fill="white"/>
            </clipPath>
        </defs>
    </symbol>

    <symbol id="hamburger-right" viewBox="0 0 36 36">
        <g fill-rule="evenodd">
            <polygon points="5 19 31 19 31 17 5 17"/>
            <polygon points="5 13 31 13 31 11 5 11"/>
            <polygon points="5 25 31 25 31 23 5 23"/>
        </g>
    </symbol>

    <symbol id="image" viewBox="0 0 36 36">
        <g fill-rule="evenodd">
            <path
                d="M7,29 L29,29 L29,25 L7,25 L7,29 Z M7,23 L29,23 L29,7 L7,7 L7,23 Z M5,31 L31,31 L31,5 L5,5 L5,31 Z"/>
            <polygon
                points="15.012 13.037 18.781 19.633 21.917 16.497 25.219 20.625 26.781 19.375 22.083 13.503 19.219 16.367 14.988 8.963 9.126 19.515 10.874 20.485"/>
        </g>
    </symbol>


    <symbol id="search" viewBox="0 0 36 36">
        <path fill-rule="evenodd"
              d="M7,16 C7,11.038 11.037,7 16,7 C20.963,7 25,11.038 25,16 C25,20.962 20.963,25 16,25 C11.037,25 7,20.962 7,16 L7,16 Z M32.707,31.293 L24.448,23.034 C26.039,21.125 27,18.673 27,16 C27,9.935 22.065,5 16,5 C9.935,5 5,9.935 5,16 C5,22.065 9.935,27 16,27 C18.673,27 21.125,26.039 23.034,24.448 L31.293,32.707 L32.707,31.293 Z"/>
    </symbol>

    <symbol id="arrow-right" viewBox="0 0 36 36">
        <path fill-rule="evenodd" clip-rule="evenodd"
              d="M24.4974 16.4368L18.8737 10.8131L20.3763 9.31055L27.8138 16.748L28.5651 17.4993L27.8138 18.2506L20.3763 25.6881L18.8737 24.1855L24.4974 18.5618H7.9375V16.4368H24.4974Z"/>
    </symbol>

    <symbol id="arrow-left" viewBox="0 0 36 36">
        <path fill-rule="evenodd" clip-rule="evenodd"
              d="M10.5026 16.4368L16.1263 10.8131L14.6237 9.31055L7.1862 16.748L6.4349 17.4993L7.1862 18.2506L14.6237 25.6881L16.1263 24.1855L10.5026 18.5618H27.0625V16.4368H10.5026Z"/>
    </symbol>

    <symbol id="delete" viewBox="0 0 36 36">
        <g fill-rule="evenodd">
            <path
                d="M27,30 C27,30.552 26.551,31 26,31 L12,31 C11.449,31 11,30.552 11,30 L11,9 L27,9 L27,30 Z M19,5 C20.103,5 21,5.897 21,7 L17,7 C17,5.897 17.897,5 19,5 L19,5 Z M31,7 L23,7 C23,4.794 21.206,3 19,3 C16.794,3 15,4.794 15,7 L7,7 L7,9 L9,9 L9,30 C9,31.654 10.346,33 12,33 L26,33 C27.654,33 29,31.654 29,30 L29,9 L31,9 L31,7 Z"/>
            <polygon points="15 28 17 28 17 12 15 12"/>
            <polygon points="21 28 23 28 23 12 21 12"/>
        </g>
    </symbol>

    <symbol id="settings" viewBox="0 0 36 36">
        <g fill-rule="evenodd">
            <path
                d="M10 20C8.897 20 8 19.103 8 18 8 16.897 8.897 16 10 16 11.103 16 12 16.897 12 18 12 19.103 11.103 20 10 20M11 14.142L11 5 9 5 9 14.142C7.28 14.589 6 16.141 6 18 6 19.859 7.28 21.411 9 21.858L9 31 11 31 11 21.858C12.72 21.411 14 19.859 14 18 14 16.141 12.72 14.589 11 14.142M18 14C16.897 14 16 13.103 16 12 16 10.897 16.897 10 18 10 19.103 10 20 10.897 20 12 20 13.103 19.103 14 18 14M22 12C22 10.141 20.72 8.589 19 8.142L19 5 17 5 17 8.142C15.28 8.589 14 10.141 14 12 14 13.859 15.28 15.411 17 15.858L17 31 19 31 19 15.858C20.72 15.411 22 13.859 22 12M26 26C24.897 26 24 25.103 24 24 24 22.897 24.897 22 26 22 27.103 22 28 22.897 28 24 28 25.103 27.103 26 26 26M30 24C30 22.141 28.72 20.589 27 20.142L27 5 25 5 25 20.142C23.28 20.589 22 22.141 22 24 22 25.859 23.28 27.411 25 27.858L25 31 27 31 27 27.858C28.72 27.411 30 25.859 30 24"/>
        </g>
    </symbol>

    <symbol id="ellipsis-horizontal" viewBox="0 0 24 24">
        <g fill-rule="evenodd">
            <path
                d="M17 13.5C16.1716 13.5 15.5 12.8284 15.5 12C15.5 11.1716 16.1716 10.5 17 10.5C17.8284 10.5 18.5 11.1716 18.5 12C18.5 12.8284 17.8284 13.5 17 13.5ZM7 13.5C6.17157 13.5 5.5 12.8284 5.5 12C5.5 11.1716 6.17157 10.5 7 10.5C7.82843 10.5 8.5 11.1716 8.5 12C8.5 12.8284 7.82843 13.5 7 13.5ZM10.5 12C10.5 12.8284 11.1716 13.5 12 13.5C12.8284 13.5 13.5 12.8284 13.5 12C13.5 11.1716 12.8284 10.5 12 10.5C11.1716 10.5 10.5 11.1716 10.5 12Z"/>
        </g>
    </symbol>


    <symbol id="ellipsis-vertical" viewBox="0 0 24 24">
        <g fill-rule="evenodd">
            <path
                d="M13.5 7C13.5 7.82843 12.8284 8.5 12 8.5C11.1716 8.5 10.5 7.82843 10.5 7C10.5 6.17157 11.1716 5.5 12 5.5C12.8284 5.5 13.5 6.17157 13.5 7ZM13.5 12C13.5 12.8284 12.8284 13.5 12 13.5C11.1716 13.5 10.5 12.8284 10.5 12C10.5 11.1716 11.1716 10.5 12 10.5C12.8284 10.5 13.5 11.1716 13.5 12ZM12 18.5C12.8284 18.5 13.5 17.8284 13.5 17C13.5 16.1716 12.8284 15.5 12 15.5C11.1716 15.5 10.5 16.1716 10.5 17C10.5 17.8284 11.1716 18.5 12 18.5Z"/>
        </g>
    </symbol>

    <symbol id="warning" viewBox="0 0 24 24">
        <g fill-rule="evenodd">
            <path
                d="M11.9994 1.97095L12.5447 2.94473L21.2948 18.5697L21.8158 19.5001H20.7494H3.24943H2.18311L2.70412 18.5697L11.4541 2.94473L11.9994 1.97095ZM19.6831 18.2501L11.9994 4.52926L4.31576 18.2501H19.6831ZM11.3744 13.5626V8.5626H12.6244V13.5626H11.3744ZM13.0001 16.0001C13.0001 16.5524 12.5524 17.0001 12.0001 17.0001C11.4478 17.0001 11.0001 16.5524 11.0001 16.0001C11.0001 15.4478 11.4478 15.0001 12.0001 15.0001C12.5524 15.0001 13.0001 15.4478 13.0001 16.0001Z"/>
        </g>
        <defs>
            <clipPath id="clip0">
                <rect width="20" height="20" fill="white" transform="translate(2 2)"/>
            </clipPath>
        </defs>
    </symbol>


</svg>
