<svg xmlns="http://www.w3.org/2000/svg" >
    <symbol id="add" viewBox="0 0 36 36">
        <polygon fill-rule="evenodd" points="31 17 19 17 19 5 17 5 17 17 5 17 5 19 17 19 17 31 19 31 19 19 31 19"/>
    </symbol>

    <symbol id="alarm" viewBox="0 0 36 36">
        <g fill-rule="evenodd">
            <polygon points="17 17 13 17 13 19 19 19 19 11 17 11"/>
            <path d="M27.5464,12.5518 C27.5464,12.5508 27.5454,12.5508 27.5454,12.5498 C27.3274,12.1698 27.0814,11.8088 26.8214,11.4588 C26.7584,11.3738 26.6944,11.2908 26.6294,11.2078 C26.0914,10.5258 25.4764,9.9108 24.7944,9.3728 C24.7094,9.3058 24.6234,9.2408 24.5364,9.1758 C24.1894,8.9188 23.8324,8.6738 23.4554,8.4578 C23.4534,8.4568 23.4504,8.4548 23.4484,8.4528 C23.9814,7.5708 24.9444,6.9998 26.0004,6.9998 C27.6544,6.9998 29.0004,8.3458 29.0004,9.9998 C29.0004,11.0558 28.4294,12.0188 27.5464,12.5518 M18.0004,26.9998 C13.0374,26.9998 9.0004,22.9628 9.0004,17.9998 C9.0004,16.7048 9.2784,15.4448 9.8264,14.2508 C10.7254,12.2958 12.2964,10.7248 14.2504,9.8258 L14.2514,9.8258 L14.2514,9.8258 C16.6354,8.7308 19.3644,8.7308 21.7494,9.8258 L21.7494,9.8258 L21.7494,9.8258 C23.7034,10.7248 25.2754,12.2958 26.1734,14.2508 C26.7214,15.4448 27.0004,16.7048 27.0004,17.9998 C27.0004,22.9628 22.9624,26.9998 18.0004,26.9998 M10.0004,6.9998 C11.0554,6.9998 12.0194,7.5708 12.5514,8.4528 C12.5494,8.4548 12.5474,8.4568 12.5444,8.4578 C12.1674,8.6738 11.8104,8.9188 11.4634,9.1758 C11.3764,9.2408 11.2904,9.3058 11.2054,9.3728 C10.5234,9.9108 9.9084,10.5258 9.3704,11.2078 C9.3054,11.2908 9.2414,11.3738 9.1794,11.4588 C8.9194,11.8088 8.6724,12.1698 8.4544,12.5498 C8.4544,12.5508 8.4544,12.5508 8.4534,12.5518 C7.5704,12.0188 7.0004,11.0558 7.0004,9.9998 C7.0004,8.3458 8.3454,6.9998 10.0004,6.9998 M31.0004,9.9998 C31.0004,7.2428 28.7564,4.9998 26.0004,4.9998 C24.1544,4.9998 22.4914,6.0468 21.6324,7.6328 C20.7754,7.3318 19.8924,7.1408 19.0004,7.0588 L19.0004,4.9998 L21.0004,4.9998 L21.0004,2.9998 L15.0004,2.9998 L15.0004,4.9998 L17.0004,4.9998 L17.0004,7.0588 C16.1084,7.1408 15.2254,7.3318 14.3684,7.6328 C13.5084,6.0468 11.8454,4.9998 10.0004,4.9998 C7.2434,4.9998 5.0004,7.2428 5.0004,9.9998 C5.0004,11.8448 6.0464,13.5068 7.6314,14.3668 C7.2174,15.5388 7.0004,16.7548 7.0004,17.9998 C7.0004,20.9968 8.2074,23.7148 10.1584,25.7008 L7.2194,29.3748 L8.7804,30.6248 L11.6864,26.9928 C13.4754,28.2528 15.6504,28.9998 18.0004,28.9998 C20.3494,28.9998 22.5244,28.2528 24.3134,26.9928 L27.2194,30.6248 L28.7804,29.3748 L25.8414,25.7008 C27.7924,23.7148 29.0004,20.9968 29.0004,17.9998 C29.0004,16.7548 28.7834,15.5388 28.3684,14.3668 C29.9534,13.5068 31.0004,11.8448 31.0004,9.9998"/>
        </g>
    </symbol>

    <symbol id="alert" viewBox="0 0 36 36">
        <g fill-rule="evenodd">
            <polygon points="17 21 19 21 19 12 17 12"/>
            <path d="M18,22.5 C17.172,22.5 16.5,23.172 16.5,24 C16.5,24.828 17.172,25.5 18,25.5 C18.828,25.5 19.5,24.828 19.5,24 C19.5,23.172 18.828,22.5 18,22.5 L18,22.5 Z"/>
            <path d="M5.4141,18 L18.0001,5.414 L30.5861,18 L18.0001,30.586 L5.4141,18 Z M18.0001,2.586 L2.5861,18 L18.0001,33.414 L33.4141,18 L18.0001,2.586 Z"/>
        </g>
    </symbol>

    <symbol id="calendar" viewBox="0 0 36 36">
        <g fill-rule="evenodd">
            <path d="M20.9997,2.9997 L20.9997,7.0007 L15.0007,7.0007 L15.0007,2.9997 L8.9997,2.9997 L8.9997,7.0007 L5.0007,7.0007 L5.0007,12.9997 L5.0007,15.0007 L5.0007,30.9997 L30.9997,30.9997 L30.9997,15.0007 L30.9997,12.9997 L30.9997,7.0007 L26.9997,7.0007 L26.9997,2.9997 L20.9997,2.9997 Z M23.0007,7.9997 L23.0007,5.0007 L25.0007,5.0007 L25.0007,7.9997 L25.0007,8.9987 L23.0007,8.9987 L23.0007,7.9997 Z M10.9997,7.9997 L10.9997,5.0007 L12.9997,5.0007 L12.9997,7.9997 L12.9997,8.9987 L10.9997,8.9987 L10.9997,7.9997 Z M26.9997,10.9997 L26.9997,8.9987 L28.9997,8.9987 L28.9997,12.9997 L7.0007,12.9997 L7.0007,8.9987 L8.9997,8.9987 L8.9997,10.9997 L15.0007,10.9997 L15.0007,8.9987 L20.9997,8.9987 L20.9997,10.9997 L26.9997,10.9997 Z M7.0007,28.9997 L29.0017,28.9997 L29.0017,15.0007 L7.0007,15.0007 L7.0007,28.9997 Z"/>
            <polygon points="9 19 11 19 11 17 9 17"/>
            <polygon points="13 19 15 19 15 17 13 17"/>
            <polygon points="17 19 19 19 19 17 17 17"/>
            <polygon points="21 19 23 19 23 17 21 17"/>
            <polygon points="25 19 27 19 27 17 25 17"/>
            <polygon points="9 23 11 23 11 21 9 21"/>
            <polygon points="13 23 15 23 15 21 13 21"/>
            <polygon points="17 23 19 23 19 21 17 21"/>
            <polygon points="21 23 23 23 23 21 21 21"/>
            <polygon points="25 23 27 23 27 21 25 21"/>
            <polygon points="9 27 11 27 11 25 9 25"/>
            <polygon points="13 27 15 27 15 25 13 25"/>
            <polygon points="17 27 19 27 19 25 17 25"/>
            <polygon points="21 27 23 27 23 25 21 25"/>
            <polygon points="25 27 27 27 27 25 25 25"/>
        </g>
    </symbol>

    <symbol id="search" viewBox="0 0 36 36">
        <path fill-rule="evenodd" d="M7,16 C7,11.038 11.037,7 16,7 C20.963,7 25,11.038 25,16 C25,20.962 20.963,25 16,25 C11.037,25 7,20.962 7,16 L7,16 Z M32.707,31.293 L24.448,23.034 C26.039,21.125 27,18.673 27,16 C27,9.935 22.065,5 16,5 C9.935,5 5,9.935 5,16 C5,22.065 9.935,27 16,27 C18.673,27 21.125,26.039 23.034,24.448 L31.293,32.707 L32.707,31.293 Z"/>
    </symbol>

    <symbol id="arrow-right" viewBox="0 0 36 36">
        <path fill-rule="evenodd" clip-rule="evenodd" d="M24.4974 16.4368L18.8737 10.8131L20.3763 9.31055L27.8138 16.748L28.5651 17.4993L27.8138 18.2506L20.3763 25.6881L18.8737 24.1855L24.4974 18.5618H7.9375V16.4368H24.4974Z" fill="white"/>
    </symbol>

    <symbol id="arrow-left" viewBox="0 0 36 36">
        <path fill-rule="evenodd" clip-rule="evenodd" d="M10.5026 16.4368L16.1263 10.8131L14.6237 9.31055L7.1862 16.748L6.4349 17.4993L7.1862 18.2506L14.6237 25.6881L16.1263 24.1855L10.5026 18.5618H27.0625V16.4368H10.5026Z" fill="#001530"/>
    </symbol>


</svg>
