<?xml version="1.0" standalone="no"?>
<!DOCTYPE svg PUBLIC "-//W3C//DTD SVG 20010904//EN"
 "http://www.w3.org/TR/2001/REC-SVG-20010904/DTD/svg10.dtd">
<svg version="1.0" xmlns="http://www.w3.org/2000/svg"
 width="1792.000000pt" height="1792.000000pt" viewBox="0 0 1792.000000 1792.000000"
 preserveAspectRatio="xMidYMid meet">
<metadata>
Created by potrace 1.11, written by Peter Selinger 2001-2013
</metadata>
<g transform="translate(0.000000,1792.000000) scale(0.100000,-0.100000)"
fill="#000000" stroke="none">
<path d="M8728 17915 c-2 -2 -46 -6 -98 -10 -52 -3 -111 -8 -130 -11 -19 -2
-55 -6 -80 -8 -25 -2 -47 -5 -50 -7 -3 -1 -16 -3 -30 -4 -14 -2 -27 -4 -30 -5
-9 -3 -35 -8 -80 -14 -25 -4 -52 -9 -60 -11 -8 -2 -29 -7 -47 -10 -91 -15
-390 -95 -464 -124 -15 -5 -30 -7 -33 -4 -3 4 -6 1 -6 -5 0 -7 -3 -11 -7 -10
-16 4 -219 -73 -348 -132 -70 -32 -115 -51 -125 -52 -3 0 -16 -8 -30 -17 -14
-10 -68 -39 -120 -65 -52 -27 -98 -54 -102 -60 -5 -6 -8 -7 -8 -1 0 7 -3 7 -8
0 -4 -5 -23 -19 -42 -29 -61 -34 -281 -176 -290 -188 -3 -3 -30 -23 -60 -44
-30 -21 -60 -42 -66 -48 -7 -6 -48 -40 -93 -75 -45 -36 -81 -68 -81 -73 0 -4
-4 -8 -10 -8 -5 0 -26 -15 -46 -32 -66 -59 -318 -313 -354 -356 -19 -24 -50
-60 -69 -80 -44 -49 -175 -219 -236 -307 -26 -38 -52 -71 -57 -73 -4 -2 -8 -8
-8 -14 0 -5 -13 -29 -30 -53 -16 -24 -30 -48 -30 -53 0 -5 -9 -17 -20 -27 -11
-10 -22 -27 -26 -38 -4 -12 -23 -48 -43 -81 -54 -89 -161 -302 -161 -320 0 -9
-4 -16 -10 -16 -5 0 -10 -9 -10 -20 0 -11 -5 -20 -12 -20 -6 0 -8 -3 -5 -7 4
-3 1 -16 -6 -27 -8 -12 -22 -46 -33 -76 -10 -30 -23 -58 -27 -61 -5 -3 -9 -10
-9 -15 -1 -11 2 -3 -43 -134 -20 -58 -38 -112 -40 -120 -2 -8 -9 -31 -15 -50
-26 -81 -69 -254 -64 -261 2 -4 0 -10 -5 -13 -5 -3 -12 -27 -17 -53 -8 -50
-10 -61 -13 -65 -2 -2 -4 -15 -6 -29 -3 -25 -9 -63 -19 -119 -6 -33 -16 -107
-21 -146 -2 -18 -6 -51 -9 -75 -15 -133 -20 -248 -20 -464 0 -213 9 -428 18
-444 4 -7 19 -144 20 -183 1 -16 4 -28 7 -28 3 0 5 -10 4 -22 -1 -13 0 -27 4
-33 3 -5 6 -14 6 -20 2 -24 21 -133 25 -137 2 -4 9 -37 14 -68 4 -24 43 -175
66 -254 7 -21 13 -46 16 -55 4 -19 41 -130 51 -151 3 -8 7 -21 9 -28 3 -15 86
-225 116 -292 31 -70 157 -322 179 -355 10 -16 23 -40 28 -52 6 -12 35 -60 65
-108 31 -47 56 -88 56 -90 0 -4 128 -185 157 -222 10 -13 26 -33 35 -45 161
-209 393 -453 599 -629 194 -166 461 -355 629 -445 30 -16 57 -32 60 -35 3 -3
43 -25 90 -49 128 -66 156 -79 171 -82 8 -2 16 -6 19 -9 5 -6 194 -89 202 -89
3 0 23 -8 44 -17 22 -9 42 -16 47 -15 4 1 7 -3 7 -8 0 -6 6 -10 13 -8 6 1 22
-3 35 -10 12 -7 22 -10 22 -7 0 3 24 -4 53 -15 61 -24 305 -93 392 -111 33 -7
65 -14 70 -15 98 -27 377 -65 597 -82 114 -9 464 -8 561 1 37 4 97 10 134 13
36 3 91 10 122 15 30 5 57 7 59 4 2 -2 14 0 26 4 12 5 44 12 71 15 28 4 59 9
70 11 11 3 31 7 45 9 14 3 36 8 50 11 14 3 34 8 45 10 11 2 29 6 40 8 11 3 34
8 50 12 17 4 61 16 99 27 38 11 76 21 85 23 21 4 230 74 256 85 11 4 63 25
115 45 52 21 164 71 248 111 84 40 155 73 159 73 3 0 9 3 12 8 3 4 24 17 46
28 22 11 43 25 47 30 4 6 11 10 15 10 14 1 207 120 298 185 97 69 174 127 222
167 12 10 31 25 41 33 137 105 419 380 522 506 8 11 35 44 60 74 25 30 48 59
53 65 13 17 47 59 73 87 13 16 24 31 24 35 1 5 10 18 20 31 11 12 20 27 20 32
0 6 5 10 10 10 6 0 10 6 10 14 0 8 4 16 9 18 11 4 101 143 101 156 0 6 4 12 9
14 9 3 141 224 145 243 5 23 40 85 48 85 4 0 8 6 8 14 0 7 13 40 29 72 16 32
36 75 44 94 49 115 59 137 67 152 6 10 10 23 10 28 0 6 9 31 20 55 11 24 22
52 23 62 2 10 9 31 15 46 7 16 12 34 12 41 0 6 5 17 12 24 7 7 9 12 5 12 -4 0
-3 8 2 18 6 11 12 30 15 43 3 13 17 62 31 109 14 47 27 92 29 100 4 18 19 91
22 105 1 6 3 15 4 20 2 6 4 15 5 20 2 6 4 12 5 15 2 7 9 42 14 70 2 14 9 54
14 90 6 36 14 85 17 110 4 25 8 59 11 76 34 226 39 780 9 989 -5 32 -15 112
-20 160 -2 17 -6 46 -10 65 -15 77 -26 136 -29 160 -4 21 -28 133 -40 180 -2
8 -16 58 -31 110 -14 52 -28 102 -30 110 -2 8 -4 16 -5 18 -2 1 -3 5 -4 10 -4
16 -38 118 -46 137 -5 11 -18 47 -30 80 -12 33 -25 64 -30 70 -5 5 -8 12 -8
15 2 11 -26 87 -43 118 -10 17 -17 32 -15 32 7 0 -155 319 -165 326 -5 3 -7
10 -4 15 4 5 2 9 -3 9 -5 0 -12 8 -15 18 -7 21 -46 87 -98 164 -21 33 -39 64
-39 69 0 5 -4 9 -10 9 -5 0 -10 5 -10 11 0 6 -19 37 -42 69 -24 31 -50 67 -58
80 -30 45 -194 247 -263 325 -85 94 -249 259 -333 333 -32 29 -75 66 -94 83
-19 17 -60 50 -90 72 -30 23 -65 52 -77 64 -12 13 -26 23 -31 23 -4 0 -17 8
-28 18 -53 49 -421 282 -444 282 -5 0 -10 4 -12 8 -3 9 -355 183 -378 187 -3
1 -22 9 -44 18 -21 9 -41 17 -43 17 -3 0 -19 6 -36 14 -37 16 -45 19 -149 56
-43 15 -80 25 -83 22 -3 -3 -5 -1 -5 4 0 5 -12 11 -26 12 -15 1 -33 7 -40 13
-8 6 -14 9 -14 5 0 -3 -12 -1 -26 4 -26 10 -161 47 -199 55 -11 3 -40 9 -65
15 -25 5 -58 12 -75 15 -16 3 -64 12 -105 20 -41 9 -91 17 -110 19 -19 2 -75
8 -125 14 -49 6 -115 14 -145 18 -54 6 -576 14 -582 9z m318 -1206 c65 -1 155
-6 199 -11 44 -4 98 -10 120 -12 22 -2 47 -6 55 -9 8 -3 33 -8 55 -11 66 -10
106 -17 180 -35 22 -6 54 -13 70 -16 17 -4 39 -10 50 -14 11 -4 67 -23 125
-41 58 -19 123 -41 145 -51 40 -16 76 -31 85 -34 84 -30 400 -198 408 -217 2
-4 10 -8 18 -8 8 0 14 -4 14 -9 0 -5 16 -15 34 -22 19 -7 33 -16 30 -21 -3 -4
0 -8 6 -8 19 0 221 -155 319 -245 78 -71 187 -182 251 -255 30 -35 60 -68 65
-74 6 -6 39 -49 73 -96 34 -47 66 -89 70 -95 27 -34 128 -197 158 -253 20 -37
49 -92 65 -122 16 -30 29 -56 29 -57 0 -2 11 -27 24 -55 40 -87 96 -231 96
-245 0 -7 4 -21 9 -31 10 -18 22 -50 26 -67 2 -5 10 -36 20 -69 9 -32 18 -64
19 -70 3 -13 19 -87 22 -98 1 -5 3 -10 4 -13 4 -8 6 -17 14 -75 5 -30 11 -59
13 -64 3 -4 7 -25 8 -45 2 -20 6 -49 9 -66 14 -81 20 -199 20 -390 0 -248 -6
-333 -40 -530 -3 -16 -7 -41 -8 -55 -2 -14 -6 -37 -10 -51 -4 -14 -9 -34 -11
-45 -2 -10 -4 -19 -5 -19 -2 0 -5 -15 -13 -50 -15 -77 -92 -315 -118 -366 -10
-20 -15 -39 -12 -43 4 -3 2 -6 -4 -6 -5 0 -10 -6 -10 -13 0 -15 -125 -272
-169 -347 -93 -160 -252 -378 -363 -499 -122 -132 -208 -216 -316 -306 -70
-60 -227 -175 -252 -188 -13 -5 -23 -14 -23 -19 0 -4 -4 -8 -10 -8 -9 0 -72
-39 -97 -60 -7 -5 -16 -10 -21 -10 -5 0 -21 -9 -36 -21 -14 -11 -26 -17 -26
-12 0 4 -4 3 -8 -2 -6 -9 -196 -108 -212 -110 -6 -1 -76 -33 -102 -46 -10 -5
-22 -9 -27 -9 -5 0 -26 -8 -47 -17 -22 -9 -41 -17 -44 -18 -3 0 -36 -12 -75
-25 -38 -13 -72 -25 -75 -25 -33 -7 -77 -19 -85 -23 -5 -4 -14 -7 -20 -8 -5
-1 -21 -4 -35 -7 -14 -3 -81 -17 -150 -31 -69 -14 -150 -28 -180 -31 -30 -3
-86 -9 -125 -13 -140 -14 -530 -7 -645 12 -14 3 -47 7 -74 11 -27 3 -52 8 -55
9 -3 2 -28 7 -56 10 -27 4 -63 11 -80 16 -16 5 -43 11 -60 14 -16 3 -52 12
-80 20 -27 8 -72 22 -100 30 -70 20 -167 54 -187 66 -10 6 -22 10 -28 10 -37
0 -453 212 -480 245 -7 8 -17 15 -22 15 -12 0 -102 61 -106 72 -2 4 -8 8 -14
8 -10 0 -114 77 -142 106 -9 8 -16 13 -16 9 0 -3 -18 12 -41 35 -22 22 -43 40
-46 40 -10 0 -172 158 -252 247 -49 54 -174 209 -211 263 -13 19 -27 37 -30
40 -3 3 -17 23 -30 45 -13 22 -27 42 -31 45 -3 3 -21 32 -40 65 -18 33 -36 62
-39 65 -3 3 -16 28 -30 55 -14 28 -28 52 -32 53 -5 2 -8 8 -8 13 0 5 -14 37
-31 71 -79 162 -207 517 -194 538 3 5 1 10 -4 12 -5 1 -12 19 -14 38 -3 19 -6
35 -7 35 -1 0 -4 13 -6 29 -3 16 -10 38 -16 49 -7 15 -7 18 2 12 9 -5 9 -3 2
11 -5 11 -13 41 -16 67 -4 27 -9 56 -11 65 -4 23 -12 92 -22 177 -15 141 -7
625 11 654 3 4 7 36 10 72 3 35 12 94 20 130 8 36 17 77 20 90 7 41 17 83 23
99 3 8 7 20 8 25 24 98 106 338 117 343 5 2 8 9 8 15 0 24 121 279 167 352 7
11 15 27 19 35 4 8 20 34 36 57 15 23 28 46 28 51 0 6 3 12 8 14 4 2 27 32 52
68 52 77 138 191 154 205 6 6 33 36 60 68 83 99 244 256 341 332 21 17 43 35
49 40 39 35 106 85 106 79 0 -4 8 2 18 12 9 11 29 25 45 33 15 8 27 18 27 23
0 4 5 8 11 8 6 0 29 13 52 28 63 43 147 92 158 92 5 0 9 5 9 10 0 6 4 10 10
10 5 0 70 29 142 64 130 63 164 76 182 75 5 0 12 3 15 8 7 11 269 97 361 118
36 9 74 18 85 20 11 3 34 7 50 10 17 3 41 8 55 10 31 7 82 14 140 21 25 2 59
7 75 10 17 2 82 7 145 11 63 3 117 7 119 9 2 2 7 2 11 -1 3 -2 60 -5 126 -6z"/>
<path d="M4175 8423 c3 -14 15 -34 25 -46 11 -11 20 -25 20 -29 0 -8 41 -81
160 -288 21 -36 39 -69 40 -75 1 -5 7 -17 14 -25 7 -8 26 -40 42 -70 15 -30
33 -61 39 -69 10 -13 50 -83 98 -171 14 -25 34 -61 46 -80 12 -19 24 -43 27
-52 4 -10 10 -18 15 -18 5 0 9 -6 9 -12 0 -7 22 -50 49 -94 27 -45 52 -91 56
-103 3 -12 11 -21 16 -21 5 0 8 -3 7 -7 -2 -7 51 -105 82 -153 5 -8 22 -37 36
-65 15 -27 35 -62 45 -76 10 -14 16 -29 12 -33 -3 -3 -1 -6 5 -6 7 0 12 -5 12
-11 0 -6 14 -31 30 -56 17 -24 30 -51 30 -59 0 -7 5 -14 10 -14 6 0 10 -4 10
-9 0 -5 12 -30 28 -56 15 -26 40 -70 55 -99 16 -28 36 -62 45 -76 9 -14 23
-38 32 -55 9 -16 29 -52 45 -80 15 -27 65 -115 110 -195 46 -80 93 -163 105
-185 13 -22 49 -85 80 -140 31 -55 66 -116 77 -135 91 -158 143 -253 143 -260
0 -5 4 -10 9 -12 4 -1 25 -34 45 -73 51 -96 99 -180 112 -196 6 -8 16 -29 24
-46 7 -18 15 -33 19 -33 3 0 13 -15 20 -32 8 -18 32 -61 53 -96 21 -34 38 -64
38 -66 0 -3 23 -43 50 -91 28 -48 50 -91 50 -96 0 -5 3 -9 8 -9 4 0 23 -31 42
-68 19 -37 37 -69 40 -72 3 -3 12 -18 20 -35 8 -16 17 -32 20 -35 3 -3 14 -23
25 -45 11 -22 22 -42 26 -45 3 -3 34 -57 70 -120 35 -63 69 -122 74 -132 6 -9
20 -34 31 -55 12 -21 32 -56 44 -78 13 -22 33 -58 45 -80 12 -22 45 -78 72
-125 27 -47 52 -92 56 -100 4 -8 23 -42 43 -75 19 -33 38 -68 41 -77 3 -10 9
-18 14 -18 5 0 9 -4 9 -10 0 -5 36 -72 80 -148 44 -77 80 -144 80 -151 0 -6 4
-11 9 -11 5 0 11 -8 14 -17 3 -10 19 -40 35 -68 70 -119 373 -652 456 -800 27
-49 52 -92 55 -95 6 -5 37 -61 74 -135 12 -22 24 -42 28 -45 3 -3 23 -36 43
-75 21 -38 61 -110 91 -160 30 -49 54 -96 54 -102 1 -7 6 -13 11 -13 6 0 10
-5 10 -11 0 -9 78 -150 110 -199 6 -8 13 -22 17 -30 4 -8 20 -37 36 -65 16
-27 45 -79 64 -115 20 -36 42 -72 49 -81 8 -9 11 -19 7 -22 -3 -4 -1 -7 5 -7
7 0 12 -7 12 -15 0 -8 5 -15 10 -15 6 0 9 -3 8 -7 -2 -8 31 -75 41 -83 5 -5
38 -63 80 -145 9 -16 19 -32 22 -35 3 -3 21 -35 41 -71 50 -92 62 -113 68
-119 3 -3 14 -23 26 -45 11 -22 31 -57 42 -77 12 -21 31 -54 42 -73 11 -19 30
-52 42 -72 11 -21 31 -56 42 -78 12 -22 24 -42 27 -45 3 -3 25 -41 49 -85 24
-44 50 -91 59 -105 9 -14 27 -45 39 -70 26 -52 50 -85 56 -79 13 13 80 135 78
142 -1 4 2 7 7 7 5 0 11 8 14 18 4 9 17 35 29 57 13 22 41 72 63 110 21 39 41
72 44 75 3 3 17 28 31 55 13 28 27 52 30 55 4 3 35 57 70 120 34 63 71 127 81
141 10 14 16 29 12 33 -3 3 -1 6 5 6 6 0 14 10 18 22 4 13 15 34 24 48 30 44
270 470 270 479 0 5 3 11 8 13 4 2 20 28 36 58 16 30 32 57 35 60 4 3 15 24
26 47 11 24 23 43 28 43 4 0 7 9 7 19 0 11 4 21 8 23 8 3 70 109 102 173 8 17
18 32 21 35 3 3 22 34 41 70 20 36 59 105 87 154 28 49 51 91 51 93 0 3 8 17
19 31 10 15 37 63 61 107 24 44 51 92 61 106 10 14 16 29 12 33 -3 3 -1 6 5 6
7 0 12 6 12 14 0 8 3 16 8 18 4 2 22 32 41 68 19 36 37 67 41 70 3 3 17 28 32
55 20 39 123 221 178 315 58 100 150 264 150 269 0 4 6 13 13 20 6 6 12 15 12
19 0 6 62 116 85 152 5 8 23 40 40 70 17 30 39 69 49 85 10 17 32 56 50 89 18
32 46 81 62 108 16 27 29 53 29 58 0 6 3 10 8 10 4 0 16 20 27 45 11 25 23 45
28 45 4 0 7 4 7 9 0 5 19 42 42 83 60 102 75 129 93 163 8 17 27 48 41 70 13
22 29 52 35 68 6 15 15 27 20 27 5 0 9 5 9 11 0 8 83 161 120 219 5 8 21 38
36 65 14 28 32 57 38 65 7 8 21 34 32 57 10 24 22 43 27 43 4 0 7 6 7 14 0 8
6 21 13 28 6 7 27 42 46 78 19 36 37 67 40 70 6 5 53 91 75 137 6 13 14 23 19
23 4 0 7 4 7 9 0 5 18 41 40 80 22 38 49 87 61 108 12 21 33 58 47 83 13 25
34 61 46 80 45 75 57 96 62 113 4 9 11 17 16 17 5 0 7 4 3 9 -3 5 0 15 7 23 7
7 22 31 33 53 11 22 23 42 26 45 4 3 21 32 38 65 18 33 41 74 51 90 11 17 23
37 27 45 6 14 92 167 137 243 10 18 59 104 108 192 50 88 97 171 106 185 9 14
17 27 17 30 0 3 12 25 27 50 120 208 168 292 168 300 0 6 3 10 8 10 4 0 16 19
27 43 11 23 34 65 52 94 18 29 33 54 33 57 0 2 19 37 43 78 24 40 47 80 51 88
4 8 12 24 19 35 7 11 39 67 71 125 32 58 76 134 96 170 21 36 38 69 38 74 0 5
4 12 9 15 11 7 255 437 255 448 -1 4 6 12 14 16 8 4 14 14 14 21 0 7 9 25 21
40 11 14 17 26 12 26 -4 0 -3 4 2 8 6 4 20 26 32 48 l23 42 -4796 0 -4796 -1
7 -24z m6832 -1183 c37 0 75 1 83 1 8 1 96 1 195 0 99 0 187 0 195 1 8 0 31 0
50 -1 19 -1 62 -1 95 -2 33 0 61 -2 63 -4 5 -5 -31 -69 -40 -73 -5 -2 -8 -8
-8 -13 0 -6 -35 -72 -78 -147 -43 -75 -91 -159 -106 -187 -16 -27 -47 -81 -69
-120 -23 -38 -42 -72 -42 -75 0 -3 -8 -17 -18 -32 -9 -16 -25 -40 -34 -55 -10
-16 -18 -30 -18 -33 0 -5 -76 -141 -95 -170 -29 -45 -190 -334 -190 -340 0 -5
-3 -10 -7 -12 -5 -1 -16 -19 -25 -38 -10 -19 -34 -62 -53 -95 -20 -33 -43 -75
-52 -92 -9 -18 -21 -33 -25 -33 -5 0 -7 -4 -3 -9 3 -5 -1 -15 -8 -23 -7 -7
-15 -17 -16 -23 -2 -5 -20 -39 -41 -75 -20 -36 -45 -78 -54 -95 -9 -16 -25
-43 -35 -60 -18 -30 -62 -111 -97 -175 -11 -19 -23 -38 -29 -42 -7 -5 -7 -8 0
-8 7 0 7 -3 0 -8 -11 -8 -17 -18 -122 -205 -43 -76 -82 -146 -88 -155 -5 -10
-39 -69 -75 -132 -35 -63 -72 -128 -82 -145 -10 -16 -24 -41 -30 -55 -7 -14
-15 -27 -18 -30 -3 -3 -10 -14 -16 -25 -17 -32 -60 -107 -81 -145 -11 -19 -29
-51 -39 -70 -11 -19 -21 -37 -24 -40 -3 -3 -12 -19 -21 -35 -22 -42 -32 -59
-83 -147 -25 -43 -46 -79 -46 -81 0 -2 -23 -44 -51 -93 -29 -49 -59 -102 -69
-119 -9 -16 -29 -52 -45 -80 -16 -27 -38 -69 -50 -92 -12 -23 -27 -48 -32 -55
-6 -7 -27 -44 -48 -83 -21 -38 -45 -78 -53 -87 -8 -10 -12 -18 -9 -18 3 0 -19
-41 -49 -90 -30 -50 -54 -95 -54 -100 0 -6 -5 -10 -12 -10 -6 0 -9 -3 -6 -6 3
-3 -8 -29 -26 -59 -17 -29 -40 -68 -50 -86 -28 -49 -173 -304 -209 -369 -16
-30 -37 -66 -46 -80 -9 -14 -23 -37 -31 -53 -15 -30 -19 -28 -48 24 -40 73
-47 84 -61 102 -8 9 -10 17 -5 17 5 0 5 4 -1 8 -5 4 -21 27 -34 52 -13 25 -31
53 -39 63 -8 9 -12 17 -9 17 6 0 -56 107 -75 130 -7 8 -12 17 -12 20 1 3 -16
35 -37 72 -21 36 -39 71 -39 77 0 6 -4 11 -8 11 -4 0 -15 15 -23 33 -17 35
-123 223 -139 247 -6 8 -13 23 -16 33 -4 9 -10 17 -15 17 -5 0 -9 6 -9 13 0 6
-23 49 -50 95 -28 46 -50 86 -50 89 0 3 -9 17 -20 33 -11 15 -17 30 -13 34 3
3 2 6 -4 6 -6 0 -13 8 -16 18 -3 9 -19 40 -36 67 -27 45 -80 139 -134 235 -10
19 -22 40 -27 45 -4 6 -23 39 -42 75 -20 36 -45 81 -57 100 -11 19 -29 51 -38
70 -10 19 -20 37 -23 40 -3 3 -10 15 -17 27 -7 11 -72 126 -144 255 -73 128
-138 243 -143 255 -6 13 -14 23 -18 23 -5 0 -8 4 -8 9 0 5 -16 38 -36 73 -20
34 -46 81 -59 103 -12 22 -31 56 -42 75 -46 79 -119 209 -177 315 -6 11 -14
22 -17 25 -3 3 -12 19 -21 35 -8 17 -31 59 -52 93 -20 35 -36 68 -36 73 0 5
-4 9 -10 9 -5 0 -10 4 -10 9 0 5 -16 38 -36 73 -20 34 -44 77 -54 93 -9 17
-28 51 -42 76 -49 88 -53 94 -63 101 -5 4 -7 8 -3 8 6 0 -81 157 -122 220 -6
8 -18 32 -27 53 -10 20 -21 37 -25 37 -5 0 -8 4 -8 9 0 5 -31 64 -70 132 -38
67 -70 126 -70 130 0 4 -3 9 -7 11 -8 3 -23 29 -85 146 -18 34 -36 62 -40 62
-5 0 -8 5 -8 10 0 9 -122 230 -160 290 -5 8 -20 36 -34 61 l-25 47 2341 1
c1287 0 2343 3 2346 5 3 3 8 3 13 0 4 -2 39 -4 76 -4z"/>
</g>
</svg>
