<svg xmlns="http://www.w3.org/2000/svg" width="36" height="36" viewBox="0 0 36 36">
  <g fill-rule="evenodd" transform="translate(2 2)">
    <polygon points="15 19 17 19 17 10 15 10"/>
    <path d="M16,20.5 C15.172,20.5 14.5,21.172 14.5,22 C14.5,22.828 15.172,23.5 16,23.5 C16.828,23.5 17.5,22.828 17.5,22 C17.5,21.172 16.828,20.5 16,20.5 L16,20.5 Z"/>
    <path d="M3.4141,16 L16.0001,3.414 L28.5861,16 L16.0001,28.586 L3.4141,16 Z M16.0001,0.586 L0.5861,16 L16.0001,31.414 L31.4141,16 L16.0001,0.586 Z"/>
  </g>
</svg>
