<svg xmlns="http://www.w3.org/2000/svg" width="36" height="36" viewBox="0 0 36 36">
  <g fill-rule="evenodd">
    <path d="M26,30 C26,30.552 25.551,31 25,31 L11,31 C10.449,31 10,30.552 10,30 L10,9 L26,9 L26,30 Z M18,5 C19.103,5 20,5.897 20,7 L16,7 C16,5.897 16.897,5 18,5 L18,5 Z M30,7 L22,7 C22,4.794 20.206,3 18,3 C15.794,3 14,4.794 14,7 L6,7 L6,9 L8,9 L8,30 C8,31.654 9.346,33 11,33 L25,33 C26.654,33 28,31.654 28,30 L28,9 L30,9 L30,7 Z"/>
    <polygon points="14 28 16 28 16 12 14 12"/>
    <polygon points="20 28 22 28 22 12 20 12"/>
  </g>
</svg>
