<svg xmlns="http://www.w3.org/2000/svg" width="36" height="36" viewBox="0 0 36 36">
  <g fill-rule="evenodd">
    <polygon points="12.293 21.293 13.707 22.707 17 19.414 17 30 19 30 19 19.414 22.293 22.707 23.707 21.293 18 15.586"/>
    <path d="M28.9707,14.6641 C28.9907,14.4401 28.9997,14.2191 28.9997,14.0001 C28.9997,9.5891 25.4107,6.0001 20.9997,6.0001 C17.9547,6.0001 15.2217,7.7151 13.8727,10.3711 C13.2807,10.1261 12.6477,10.0001 11.9997,10.0001 C9.3517,10.0001 7.1777,12.0691 7.0107,14.6761 C4.5837,15.8221 2.9997,18.2771 2.9997,21.0001 C2.9997,24.8591 6.1407,28.0001 9.9997,28.0001 L11.9997,28.0001 L11.9997,26.0001 L9.9997,26.0001 C7.2427,26.0001 4.9997,23.7571 4.9997,21.0001 C4.9997,18.8761 6.3517,16.9791 8.3627,16.2801 L9.0977,16.0251 L8.9997,15.0001 C8.9997,13.3461 10.3457,12.0001 11.9997,12.0001 C12.6307,12.0001 13.2427,12.2051 13.7697,12.5931 L14.8757,13.4071 L15.3107,12.1031 C16.1287,9.6491 18.4147,8.0001 20.9997,8.0001 C24.3087,8.0001 26.9997,10.6911 26.9997,14.0001 C26.9997,14.3601 26.9637,14.7361 26.8917,15.1161 L26.7287,15.9781 L27.5617,16.2531 C29.6177,16.9301 30.9997,18.8371 30.9997,21.0001 C30.9997,23.7571 28.7567,26.0001 25.9997,26.0001 L23.9997,26.0001 L23.9997,28.0001 L25.9997,28.0001 C29.8597,28.0001 32.9997,24.8591 32.9997,21.0001 C32.9997,18.2551 31.4107,15.8041 28.9707,14.6641"/>
  </g>
</svg>
