<svg xmlns="http://www.w3.org/2000/svg" width="36" height="36" viewBox="0 0 36 36">
  <g fill-rule="evenodd">
    <path d="M4.6952 25.1335C5.0252 25.7495 5.4012 26.3475 5.8122 26.9105L7.4272 25.7305C7.0702 25.2425 6.7442 24.7235 6.4582 24.1895L4.6952 25.1335zM5.7782 9.216L7.3972 10.39C7.7522 9.9 8.1462 9.429 8.5672 8.991L7.1242 7.606C6.6402 8.11 6.1872 8.652 5.7782 9.216M8.7254 29.9182C9.2754 30.3482 9.8614 30.7432 10.4674 31.0922L11.4664 29.3592C10.9404 29.0562 10.4334 28.7142 9.9554 28.3422L8.7254 29.9182zM29.4823 8.321C29.0303 7.787 28.5383 7.28 28.0193 6.816L26.6853 8.306C27.1353 8.709 27.5633 9.149 27.9553 9.612L29.4823 8.321zM10.4173 5.0168L11.4233 6.7458C11.9483 6.4398 12.4973 6.1698 13.0553 5.9418L12.3003 4.0908C11.6563 4.3528 11.0223 4.6648 10.4173 5.0168M4.9559 18.9773L2.9609 19.1203C3.0109 19.8193 3.1099 20.5183 3.2549 21.1983L5.2109 20.7813C5.0849 20.1913 4.9989 19.5843 4.9559 18.9773M5.6971 13.5988L3.8161 12.9188C3.5781 13.5758 3.3851 14.2568 3.2421 14.9418L5.2001 15.3508C5.3241 14.7578 5.4911 14.1678 5.6971 13.5988M32.4432 13.8337C32.2492 13.1647 32.0052 12.5007 31.7172 11.8627L29.8932 12.6837C30.1422 13.2367 30.3542 13.8117 30.5222 14.3917L32.4432 13.8337zM14.3563 32.6584C15.0343 32.8254 15.7303 32.9474 16.4233 33.0184L16.6283 31.0294C16.0273 30.9674 15.4233 30.8624 14.8353 30.7174L14.3563 32.6584zM25.2884 28.864L26.4094 30.52C26.9884 30.128 27.5444 29.693 28.0614 29.226L26.7224 27.741C26.2734 28.146 25.7904 28.524 25.2884 28.864M31.0389 18.0403C31.0389 18.6483 30.9969 19.2603 30.9139 19.8583L32.8939 20.1333C32.9909 19.4453 33.0389 18.7403 33.0389 18.0653L33.0389 17.9843 31.0389 18.0403zM29.0584 24.9572L30.7534 26.0182C31.1254 25.4232 31.4574 24.7992 31.7414 24.1632L29.9144 23.3492C29.6684 23.9002 29.3804 24.4412 29.0584 24.9572M21.9779 5.6047C22.5539 5.7897 23.1229 6.0177 23.6679 6.2817L24.5399 4.4817C23.9099 4.1767 23.2529 3.9137 22.5879 3.7007L21.9779 5.6047zM16.5765 5.0569C17.1785 4.9929 17.7965 4.9709 18.3995 4.9889L18.4585 2.9899C17.7625 2.9669 17.0545 2.9939 16.3635 3.0689L16.5765 5.0569zM20.2616 30.8996L20.6076 32.8696C21.2966 32.7486 21.9826 32.5776 22.6456 32.3606L22.0266 30.4596C21.4516 30.6466 20.8576 30.7946 20.2616 30.8996"/>
  </g>
</svg>
